<svg width="50.000000" height="50.000000" viewBox="0 0 50 50" fill="none" xmlns="http://www.w3.org/2000/svg" xmlns:xlink="http://www.w3.org/1999/xlink">
	<desc>
			Created with Pixso.
	</desc>
	<defs>
		<clipPath id="clip33_210">
			<rect id="Знак_бел 1" rx="0.000000" width="49.000000" height="49.000000" transform="translate(0.500000 0.500000)" fill="white" fill-opacity="0"/>
		</clipPath>
	</defs>
	<rect id="Знак_бел 1" rx="0.000000" width="49.000000" height="49.000000" transform="translate(0.500000 0.500000)" fill="#FFFFFF" fill-opacity="0"/>
	<g clip-path="url(#clip33_210)">
		<path id="Vector" d="M43.95 28L35.36 28C34.3 30.3 32.37 32.1 30 32.95C31.99 33.75 35.79 35.02 39.7 36C41.81 33.75 43.29 30.99 44 28L43.95 28Z" fill="#F04451" fill-opacity="1.000000" fill-rule="nonzero"/>
		<path id="Vector" d="M26.39 33.63C23.68 32.05 21.19 30.14 19.56 28C19.48 28.44 19.41 28.91 19.35 29.39C19.35 29.4 19.35 29.41 19.35 29.42C19.11 31.42 18.9 35.48 19.04 39.59C19.12 41.92 19.3 44.26 19.65 46.26C20.13 46.51 21.08 47 21.08 47L25.36 41.44C25.63 41.47 25.9 41.49 26.17 41.51C26.18 41.51 26.19 41.51 26.2 41.51C26.35 41.52 26.49 41.52 26.63 41.53C26.85 41.54 27.08 41.55 27.3 41.55C27.31 41.55 27.31 41.55 27.32 41.55C31.15 41.58 34.9 40.42 38 38.24C37.95 38.23 37.91 38.22 37.86 38.21C34.87 37.59 30.39 35.96 26.39 33.63Z" fill="#F04451" fill-opacity="1.000000" fill-rule="nonzero"/>
		<path id="Vector" d="M21 19C20.6 19.05 20.2 19.11 19.78 19.19C19.71 19.2 19.65 19.21 19.58 19.22C17.6 19.59 13.67 20.6 9.76 21.93C7.46 22.71 5.17 23.6 3.29 24.54C3.19 25.06 3 26.08 3 26.08L9.64 28.34C9.64 28.34 9.64 28.34 9.65 28.34C10.47 32.61 12.9 36.41 16.46 39C16.46 38.95 16.45 38.9 16.45 38.86C16.16 35.76 16.47 30.79 17.73 26.21C18.46 23.51 19.53 20.95 21 19Z" fill="#F04451" fill-opacity="1.000000" fill-rule="nonzero"/>
		<path id="Vector" d="M22.94 16.36C25.8 16.25 28.63 16.51 31 17.32C30.83 16.96 30.64 16.59 30.45 16.22C30.41 16.15 30.38 16.09 30.35 16.03C29.4 14.24 27.24 10.77 24.77 7.41C23.32 5.45 21.77 3.52 20.28 2C19.74 2.05 18.69 2.17 18.69 2.17L18.43 9.24C18.43 9.24 18.44 9.24 18.44 9.24C14.49 11.32 11.47 14.8 10 19C10.04 18.98 10.08 18.96 10.12 18.94C13.09 17.73 18.06 16.53 22.94 16.36Z" fill="#F04451" fill-opacity="1.000000" fill-rule="nonzero"/>
		<path id="Vector" d="M34.02 16.71C34.47 17.74 34.87 18.8 35.21 19.88C35.23 19.92 35.24 19.96 35.25 20L44 20C43.83 19.35 43.63 18.72 43.39 18.1C43.32 17.94 43.26 17.78 43.19 17.62C40.68 11.67 34.87 7.39 28 7C29.84 9.05 32.19 12.59 33.91 16.46C33.94 16.54 33.98 16.62 34.02 16.71Z" fill="#F04451" fill-opacity="1.000000" fill-rule="nonzero"/>
	</g>
</svg>
